<?xml version="1.0" standalone="no"?>
<!DOCTYPE svg PUBLIC "-//W3C//DTD SVG 1.1//EN" "http://www.w3.org/Graphics/SVG/1.1/DTD/svg11.dtd">
<svg width="100%" height="100%" viewBox="0 0 1190 30" version="1.1" xmlns="http://www.w3.org/2000/svg" xmlns:xlink="http://www.w3.org/1999/xlink" xml:space="preserve" style="fill-rule:evenodd;clip-rule:evenodd;stroke-linejoin:round;stroke-miterlimit:1.41421;">
    <g transform="matrix(1,0,0,1,-129.596,-1033.41)">
        <g id="Layer1">
            <g id="Horizontal Linie">
                <g transform="matrix(2.46614,0,0,2.46614,9.13571,-743.374)">
                    <path d="M251.503,728.8C252.153,728.847 252.97,728.417 253.69,727.757C254.213,727.273 254.243,726.493 253.643,726.137C252.433,725.417 251.18,724.757 249.917,724.14C249.473,723.917 248.953,724.05 248.623,724.443C248.28,724.863 248.003,725.343 247.727,725.813C247.357,726.447 247.553,726.99 247.98,727.543C248.793,728.6 249.927,728.78 251.503,728.8ZM251.117,721.123C252.01,721.187 252.92,721.98 253.89,722.617C254.473,723 254.94,723.56 255.48,724.01C256.793,725.103 257.063,727.023 255.997,728.403C254.86,729.873 253.317,730.82 251.56,731.377C250.65,731.667 249.703,731.667 248.8,731.263C248.293,731.043 247.81,730.76 247.283,730.61C245.203,730.013 244.893,728.487 245.403,726.437C245.737,725.09 246.45,723.797 247.2,722.61C247.987,721.37 249.39,721.193 251.117,721.123Z" style="fill:rgb(156,175,183);"/>
                </g>
                <g transform="matrix(2.46614,0,0,2.46614,9.13571,-743.374)">
                    <path d="M88.3,729.38C88.603,729.303 89.153,729.223 89.653,729.02C90.813,728.55 91.24,727.083 90.49,726.07C89.967,725.36 89.253,724.787 88.303,724.947C87.37,725.107 86.537,725.453 86.153,726.52C85.563,728.157 86.32,729.363 88.3,729.38ZM89.54,721.587C89.99,721.783 90.517,721.97 90.99,722.243C93.053,723.45 93.8,725.633 93.187,727.937C92.49,730.523 90.58,731.647 88.247,732.15C86.587,732.51 85.183,731.623 83.957,730.55C83.843,730.45 83.763,730.3 83.7,730.157C83.07,728.813 83.383,725.223 84.707,724.13C86.31,722.803 87.11,722.267 89.54,721.587Z" style="fill:rgb(156,175,183);"/>
                </g>
                <g transform="matrix(2.46614,0,0,2.46614,9.13571,-743.374)">
                    <path d="M330.267,728.36C330.93,728.133 331.587,727.91 332.237,727.683C332.903,727.453 333.213,726.33 332.99,725.667C332.85,725.233 332.013,724.777 331.423,724.84C330.577,724.933 329.737,725.07 328.893,725.213C328.283,725.313 327.953,725.71 327.857,726.313C327.763,726.91 327.917,727.43 328.47,727.7C329.017,727.967 329.617,728.123 330.267,728.36ZM329.377,730.917C327.887,730.92 325.657,729.547 325.243,728.337C324.817,727.097 324.99,725.783 325.67,724.72C326.94,722.75 328.86,721.63 331.213,721.68C332.7,721.713 334.127,722.363 335.19,723.47C336.153,724.473 336.207,725.68 335.693,726.987C334.82,729.223 332.997,730.167 330.857,730.713C330.327,730.847 329.767,730.867 329.377,730.917Z" style="fill:rgb(156,175,183);"/>
                </g>
                <g transform="matrix(2.46614,0,0,2.46614,9.13571,-743.374)">
                    <path d="M517.007,723.67C515.757,723.737 514.82,723.747 513.9,723.85C513.033,723.943 512.51,724.51 512.273,725.327C512.097,725.927 512.467,726.54 513.29,726.977C513.7,727.193 514.15,727.33 514.58,727.517C515.273,727.813 515.98,727.757 516.647,727.513C517.39,727.243 518.01,726.783 518.28,725.773C517.893,725.133 517.46,724.417 517.007,723.67ZM515.087,730.237C513.46,730.173 511.977,729.837 510.78,728.61C510.19,728.003 509.867,727.37 509.863,726.53C509.853,725.147 510.35,724.05 511.183,722.887C512.873,720.54 515.17,720.68 517.537,720.857C517.96,720.883 518.397,721.223 518.75,721.517C519.11,721.81 519.383,722.21 519.68,722.577C521.283,724.583 521.003,727.25 518.977,728.823C517.84,729.703 516.53,730.213 515.087,730.237Z" style="fill:rgb(156,175,183);"/>
                </g>
                <g transform="matrix(2.46614,0,0,2.46614,9.13571,-743.374)">
                    <path d="M142.037,725.427C141.357,725.42 140.81,725.43 140.27,725.41C139.723,725.39 139.173,725.28 138.63,725.313C137.52,725.373 136.453,726.733 136.853,727.587C137.493,728.95 138.747,729.74 140.307,729.31C142.083,728.817 142.657,728.017 142.397,726.253C142.363,726.033 142.22,725.83 142.037,725.427ZM144.783,726.383C144.78,726.857 144.803,727.33 144.77,727.807C144.707,728.727 144.27,729.44 143.537,730.007C142.19,731.06 140.643,731.65 138.997,731.92C136.79,732.283 133.977,729.907 134.183,727.73C134.31,726.337 134.99,725 136.047,723.98C136.853,723.207 137.78,722.587 138.947,722.49C140.047,722.4 141.157,722.257 142.253,722.317C143.697,722.397 144.547,723.29 144.73,724.723C144.8,725.27 144.79,725.827 144.817,726.383C144.807,726.383 144.793,726.383 144.783,726.383Z" style="fill:rgb(156,175,183);"/>
                </g>
                <g transform="matrix(2.46614,0,0,2.46614,9.13571,-743.374)">
                    <path d="M115.123,725.203C114.483,725.167 113.947,725.15 113.413,725.107C111.85,724.98 110.847,725.807 110.777,727.317C110.77,727.533 110.837,727.783 110.95,727.973C111.527,728.923 113.13,729.587 114.223,729.36C115.697,729.053 116.393,727.747 115.807,726.327C115.633,725.91 115.333,725.543 115.123,725.203ZM117.5,723.287C117.657,723.667 117.717,723.903 117.84,724.1C118.853,725.76 118.547,727.393 117.857,729.077C117.54,729.86 117.08,730.47 116.357,730.827C114.387,731.81 112.357,732.223 110.24,731.227C109.5,730.877 108.923,730.37 108.537,729.65C107.637,727.987 108.227,726.48 109.05,725.01C109.16,724.813 109.4,724.69 109.54,724.503C110.843,722.777 112.427,721.6 115.057,721.89C115.653,722.23 116.537,722.737 117.5,723.287Z" style="fill:rgb(156,175,183);"/>
                </g>
                <g transform="matrix(2.46614,0,0,2.46614,9.13571,-743.374)">
                    <path d="M437.653,724.36C437.017,724.543 436.103,724.78 435.207,725.067C435.003,725.13 434.84,725.35 434.687,725.523C434.107,726.163 434.28,726.787 434.977,727.287C436.143,728.113 437.27,727.46 438.39,727.277C439.183,727.147 439.673,726.407 439.61,725.76C439.54,725.037 438.743,724.363 437.653,724.36ZM437.937,721.73C438.327,721.73 438.727,721.69 439.113,721.74C440.903,721.95 442.117,723.267 442.09,725.08C442.067,726.53 441.737,727.893 440.347,728.723C440.077,728.883 439.83,729.087 439.59,729.29C437.557,731.023 435.37,730.68 433.177,729.707C432.097,729.223 431.64,728.327 431.49,727.1C431.1,723.803 434.167,721.943 436.52,721.727C436.99,721.68 437.463,721.723 437.937,721.73Z" style="fill:rgb(156,175,183);"/>
                </g>
                <g transform="matrix(2.46614,0,0,2.46614,9.13571,-743.374)">
                    <path d="M490.11,724.467C489.077,724.563 488.437,724.567 487.823,724.7C487.107,724.847 486.523,725.243 486.197,725.943C485.923,726.54 486.14,727.297 486.733,727.56C488.163,728.2 489.637,728.25 491.1,727.683C491.447,727.55 491.76,727.257 492.017,726.97C492.613,726.313 492.517,725.397 491.713,724.96C491.123,724.64 490.407,724.553 490.11,724.467ZM494.71,724.943C494.77,727.823 493,729.88 490.19,730.453C488.39,730.82 486.75,730.49 485.147,729.75C483.813,729.14 483.2,727.84 483.537,726.45C484.11,724.04 486.593,721.643 489.03,721.583C490.723,721.55 492.477,721.943 493.877,723.1C494.437,723.56 494.757,724.207 494.71,724.943Z" style="fill:rgb(156,175,183);"/>
                </g>
                <g transform="matrix(2.46614,0,0,2.46614,9.13571,-743.374)">
                    <path d="M222.74,724.947C221.247,724.84 220.457,725.293 219.817,726.05C219.39,726.557 219.423,727.283 219.917,727.74C221.067,728.797 222.467,728.903 223.863,728.523C225.153,728.17 225.45,726.587 224.39,725.757C223.807,725.293 223.03,725.08 222.74,724.947ZM227.54,726.28C227.497,729.41 224.22,731.953 221.163,731.193C220.403,731.01 219.637,730.78 218.937,730.443C217.473,729.737 216.81,728.26 217.287,726.683C218.15,723.837 220.247,721.98 223.597,721.943C225.99,721.913 227.57,723.74 227.54,726.28Z" style="fill:rgb(156,175,183);"/>
                </g>
                <g transform="matrix(2.46614,0,0,2.46614,9.13571,-743.374)">
                    <path d="M169.363,727.757C169.263,725.22 168.113,725.27 166.28,725.17C165.897,725.15 165.503,725.257 165.12,725.33C164.32,725.473 163.93,726.04 163.76,726.77C163.6,727.46 163.927,728.133 164.613,728.55C165.37,729.007 166.183,729.223 167.08,729.153C168.11,729.077 168.81,728.52 169.363,727.757ZM165.987,731.607C165.39,731.603 165.153,731.617 164.92,731.597C162.57,731.413 161.317,730.04 161.447,727.73C161.483,727.023 161.547,726.3 161.77,725.637C163.02,721.877 167.427,721.35 169.723,722.97C171.873,724.48 172.997,727.807 170,730.17C168.703,731.193 167.27,731.69 165.987,731.607Z" style="fill:rgb(156,175,183);"/>
                </g>
                <g transform="matrix(2.46614,0,0,2.46614,9.13571,-743.374)">
                    <path d="M194.233,725.243C193.82,725.213 193.59,725.19 193.353,725.18C192.713,725.15 192.37,725.54 192.09,726.047C191.77,726.63 191.99,727.11 192.387,727.527C192.703,727.863 193.04,728.21 193.427,728.46C194.39,729.08 195.903,728.903 196.69,728.133C197.337,727.497 197.31,726.703 196.633,726.1C195.893,725.44 195.06,725.093 194.233,725.243ZM199.587,726.777C199.603,728.49 198.777,730.51 196.237,731.01C195.697,731.12 195.15,731.2 194.607,731.283C192.553,731.607 190.56,730.57 189.82,728.7C189.09,726.85 189.523,724.77 191.507,723.263C191.877,722.98 192.34,722.827 192.747,722.583C196.103,720.57 199.85,723.99 199.587,726.777Z" style="fill:rgb(156,175,183);"/>
                </g>
                <g transform="matrix(2.46614,0,0,2.46614,9.13571,-743.374)">
                    <path d="M411.237,724.63C410.213,724.873 409.203,725.033 408.253,725.367C407.54,725.62 407.45,726.68 408.057,727.117C409.397,728.08 410.893,728.47 412.493,728.007C412.963,727.87 413.397,727.407 413.71,726.993C414.2,726.347 413.98,725.543 413.25,725.24C412.613,724.973 411.923,724.83 411.237,724.63ZM410.813,722.007C412.017,722.337 413.543,722.72 415.04,723.19C415.67,723.387 416.08,723.94 416.16,724.607C416.237,725.223 416.28,725.873 416.167,726.48C415.72,728.827 412.623,731.337 409.903,730.667C408.91,730.427 407.913,730.15 406.98,729.74C405.467,729.087 404.747,727.133 405.267,725.537C405.98,723.343 407.38,722.087 409.767,722.08C410,722.08 410.24,722.047 410.813,722.007Z" style="fill:rgb(156,175,183);"/>
                </g>
                <g transform="matrix(2.46614,0,0,2.46614,9.13571,-743.374)">
                    <path d="M279.57,726.223C279.57,725.507 279.097,724.813 278.537,724.883C277.463,725.017 276.39,725.22 275.337,725.483C274.82,725.613 274.647,726.54 275.04,726.87C275.58,727.32 276.13,727.78 276.74,728.12C277.817,728.71 279.777,727.533 279.57,726.223ZM282.203,725.793C282.25,727.053 281.693,728.093 280.897,728.99C280.047,729.95 278.93,730.567 277.71,730.927C275.677,731.52 272.693,729.74 272.447,727.68C272.267,726.17 272.697,724.73 273.827,723.577C274.81,722.577 276.06,722.12 277.373,721.83C280.09,721.237 282.233,723.017 282.203,725.793Z" style="fill:rgb(156,175,183);"/>
                </g>
                <g transform="matrix(2.46614,0,0,2.46614,9.13571,-743.374)">
                    <path d="M384.367,724.497C382.673,724.5 382.343,724.613 381.597,725.437C380.857,726.247 381.033,727.303 381.987,727.813C383.107,728.41 385.507,728.03 386.413,727.107C386.913,726.6 386.963,726.02 386.6,725.383C386.08,724.487 385.277,724.347 384.367,724.497ZM383.267,730.813C382.42,730.633 381.56,730.49 380.73,730.25C379.853,730 379.287,729.34 378.78,728.6C378.29,727.887 378.673,727.213 378.85,726.553C379.053,725.8 379.35,725.07 379.64,724.347C380.293,722.687 381.97,722.31 383.307,721.55C383.72,721.31 384.393,721.473 384.94,721.54C385.323,721.587 385.68,721.837 386.067,721.893C387.95,722.17 388.72,723.383 388.967,725.143C389.213,726.893 388.667,728.247 387.18,729.22C385.987,729.997 384.837,730.883 383.267,730.813Z" style="fill:rgb(156,175,183);"/>
                </g>
                <g transform="matrix(2.46614,0,0,2.46614,9.13571,-743.374)">
                    <path d="M359.113,725.017C357.993,725.12 357.07,725.19 356.147,725.293C355.773,725.337 355.393,725.403 355.047,725.543C354.717,725.677 354.56,726.31 354.73,726.567C355.51,727.77 357.337,728.41 358.647,727.947C360.6,727.25 360.697,726.663 359.113,725.017ZM358.05,722.06C359.537,722.047 360.683,722.65 361.62,723.703C363.47,725.767 362.77,728.87 360.17,729.89C359.237,730.257 358.213,730.463 357.21,730.57C355.023,730.803 353.463,729.68 352.237,728.01C351.8,727.417 351.673,726.747 351.953,726.003C352.537,724.457 353.483,723.25 355.087,722.73C356.043,722.417 357.06,722.28 358.05,722.06Z" style="fill:rgb(156,175,183);"/>
                </g>
                <g transform="matrix(2.46614,0,0,2.46614,9.13571,-743.374)">
                    <path d="M464.3,724.797C463.18,724.793 462.4,724.777 461.62,724.783C460.377,724.8 459.71,725.463 459.757,726.71C459.767,726.97 460.03,727.397 460.233,727.437C461.073,727.6 461.957,727.793 462.783,727.677C463.323,727.6 463.937,727.107 464.243,726.62C464.477,726.247 464.297,725.607 464.3,724.797ZM463.463,721.713C463.92,721.81 464.657,721.837 465.267,722.123C466.593,722.743 467.32,723.813 467.197,725.35C467.067,726.973 466.81,728.517 465.01,729.207C464.273,729.487 463.527,729.777 462.85,730.17C461.78,730.793 460.743,730.727 459.68,730.22C459.397,730.087 459.113,729.937 458.833,729.8C457.247,729.03 456.573,727.77 457.18,726.167C457.893,724.273 459.1,722.697 461.11,722.01C461.767,721.79 462.51,721.827 463.463,721.713Z" style="fill:rgb(156,175,183);"/>
                </g>
                <g transform="matrix(2.46614,0,0,2.46614,9.13571,-743.374)">
                    <path d="M65.253,723.037C63.977,723.96 63.257,725.033 62.977,726.383C62.743,727.513 63.263,728.187 64.433,728.31C65.56,728.427 66.63,728.2 67.577,727.58C69.007,726.65 68.967,725.06 67.493,724.177C66.827,723.78 66.11,723.467 65.253,723.037ZM64.627,730.77C63.863,730.81 62.887,730.623 61.983,730.033C60.48,729.057 59.91,727.553 60.677,725.97C61.187,724.917 61.917,723.973 62.573,722.997C63.8,721.177 65.74,720.98 67.613,721.113C70.457,721.31 72.12,725.147 70.467,727.43C70.05,728.003 69.56,728.523 69.103,729.063C68,730.357 66.597,730.92 64.627,730.77Z" style="fill:rgb(156,175,183);"/>
                </g>
                <g transform="matrix(2.46614,0,0,2.46614,9.13571,-743.374)">
                    <path d="M301.19,726.827C301.64,727.8 302.263,728.203 303.063,728.41C303.937,728.633 304.777,728.537 305.6,728.2C306.273,727.92 306.63,727.37 306.55,726.74C306.46,726.043 305.81,725.44 305.09,725.453C304.55,725.467 304,725.65 303.473,725.607C302.47,725.513 301.863,726.033 301.19,726.827ZM303.05,730.77C302.733,730.77 302.417,730.8 302.103,730.757C299.067,730.373 297.84,727.43 299.68,724.943C300.61,723.693 301.92,722.907 303.34,722.46C305.12,721.9 307.697,723.173 308.607,724.87C308.787,725.203 308.93,725.64 308.88,726C308.753,726.93 308.6,727.873 308.277,728.747C308.107,729.203 307.607,729.613 307.16,729.877C306.09,730.503 304.583,730.787 303.05,730.77Z" style="fill:rgb(156,175,183);"/>
                </g>
                <g transform="matrix(2.46614,0,0,2.46614,9.13571,-743.374)">
                    <path d="M237.913,725.987C237.537,726.69 237.24,727.327 236.867,727.92C236.533,728.45 235.77,728.61 235.19,728.35C234.727,728.143 234.437,727.553 234.543,726.96C234.6,726.653 234.683,726.343 234.81,726.06C235.533,724.473 236.427,724.403 237.913,725.987Z" style="fill:rgb(156,175,183);"/>
                </g>
                <g transform="matrix(2.46614,0,0,2.46614,9.13571,-743.374)">
                    <path d="M529.353,724.807C529.393,726.02 528.177,726.81 527.067,726.293C526.42,725.993 526.11,725.377 526.343,724.737C526.477,724.373 526.67,724.017 526.903,723.707C527.323,723.157 528.05,722.95 528.6,723.18C529.103,723.393 529.22,723.857 529.3,724.333C529.327,724.487 529.337,724.647 529.353,724.807Z" style="fill:rgb(156,175,183);"/>
                </g>
                <g transform="matrix(2.46614,0,0,2.46614,9.13571,-743.374)">
                    <path d="M343.89,727.643C342.973,727.593 342.383,727.017 342.283,726.263C342.15,725.293 343.05,724.203 344.04,724.123C344.73,724.067 345.477,724.783 345.343,725.45C345.243,725.98 345.107,726.547 344.82,726.987C344.597,727.327 344.11,727.497 343.89,727.643Z" style="fill:rgb(156,175,183);"/>
                </g>
                <g transform="matrix(2.46614,0,0,2.46614,9.13571,-743.374)">
                    <path d="M396.72,724.32C397.817,724.34 398.46,725.25 398.1,726.27C397.773,727.193 396.797,727.837 395.857,727.58C395.47,727.477 395.043,727.043 394.893,726.657C394.56,725.843 395.823,724.3 396.72,724.32Z" style="fill:rgb(156,175,183);"/>
                </g>
                <g transform="matrix(2.46614,0,0,2.46614,9.13571,-743.374)">
                    <path d="M451.44,725.493C451.477,726.29 451.04,726.797 450.33,727.113C449.55,727.463 448.673,727.02 448.473,726.18C448.333,725.567 448.763,724.46 449.293,724.08C449.77,723.74 450.403,723.71 450.853,724.01C451.303,724.31 451.47,724.72 451.44,725.493Z" style="fill:rgb(156,175,183);"/>
                </g>
                <g transform="matrix(2.46614,0,0,2.46614,9.13571,-743.374)">
                    <path d="M263.54,728.2C262.503,728.19 261.77,727.347 262.053,726.6C262.27,726.023 262.573,725.427 263.01,725.01C263.28,724.75 263.897,724.673 264.297,724.773C264.76,724.89 265.05,725.403 264.943,725.903C264.817,726.507 264.613,727.113 264.31,727.647C264.147,727.94 263.713,728.08 263.54,728.2Z" style="fill:rgb(156,175,183);"/>
                </g>
                <g transform="matrix(2.46614,0,0,2.46614,9.13571,-743.374)">
                    <path d="M182.193,726.31C181.837,727.023 181.617,727.707 181.2,728.233C180.687,728.883 179.663,728.607 179.257,727.883C178.76,726.997 179.257,725.64 179.957,725.147C180.377,724.853 180.88,724.953 181.263,725.273C181.593,725.553 181.853,725.92 182.193,726.31Z" style="fill:rgb(156,175,183);"/>
                </g>
                <g transform="matrix(2.46614,0,0,2.46614,9.13571,-743.374)">
                    <path d="M503.527,725.6C503.54,726.96 502.397,727.81 501.233,727.44C500.977,727.36 500.64,727.04 500.617,726.807C500.533,725.843 500.763,724.937 501.56,724.29C501.997,723.937 502.76,724.03 503.03,724.483C503.27,724.88 503.41,725.33 503.527,725.6Z" style="fill:rgb(156,175,183);"/>
                </g>
                <g transform="matrix(2.46614,0,0,2.46614,9.13571,-743.374)">
                    <path d="M154.07,726.157C153.977,726.4 153.853,726.863 153.627,727.267C153.313,727.817 152.91,728.39 152.173,728.24C151.843,728.177 151.44,727.847 151.31,727.54C151.03,726.873 150.997,726.147 151.6,725.587C151.887,725.32 152.213,725.083 152.56,724.913C153.173,724.61 154.093,725.253 154.07,726.157Z" style="fill:rgb(156,175,183);"/>
                </g>
                <g transform="matrix(2.46614,0,0,2.46614,9.13571,-743.374)">
                    <path d="M423.123,725.303C423.293,725.41 423.7,725.537 423.89,725.813C424.29,726.413 424.473,727.093 424.02,727.783C423.56,728.48 422.83,728.81 422,728.57C421.73,728.497 421.417,728.28 421.29,728.04C420.7,726.893 421.63,725.377 423.123,725.303Z" style="fill:rgb(156,175,183);"/>
                </g>
                <g transform="matrix(2.46614,0,0,2.46614,9.13571,-743.374)">
                    <path d="M127.207,726.22C127.157,726.913 126.34,728.08 125.71,728.12C125.31,728.147 124.82,727.91 124.49,727.643C124.06,727.293 123.797,726.703 124.127,726.19C124.447,725.7 124.91,725.22 125.423,724.947C126.143,724.56 127.263,725.42 127.207,726.22Z" style="fill:rgb(156,175,183);"/>
                </g>
                <g transform="matrix(2.46614,0,0,2.46614,9.13571,-743.374)">
                    <path d="M207.427,728.257C207.147,728.14 206.9,728.097 206.733,727.957C205.83,727.213 206,725.553 207.017,724.94C207.577,724.607 208.07,724.87 208.56,725.08C209.083,725.307 209.197,725.827 209.063,726.25C208.883,726.827 208.55,727.37 208.197,727.86C208.043,728.077 207.673,728.137 207.427,728.257Z" style="fill:rgb(156,175,183);"/>
                </g>
                <g transform="matrix(2.46614,0,0,2.46614,9.13571,-743.374)">
                    <path d="M318.313,726.13C318.103,726.87 318.05,727.353 317.827,727.74C317.65,728.04 317.297,728.317 316.963,728.42C316.3,728.63 315.473,728.36 315.283,727.957C315.02,727.4 315.167,726.863 315.54,726.437C315.883,726.04 316.297,725.52 316.74,725.453C317.173,725.393 317.677,725.83 318.313,726.13Z" style="fill:rgb(156,175,183);"/>
                </g>
                <g transform="matrix(2.46614,0,0,2.46614,9.13571,-743.374)">
                    <path d="M370.523,724.643C370.673,724.72 370.98,724.813 371.207,725.003C371.777,725.483 371.713,726.133 371.533,726.75C371.343,727.39 370.94,727.857 370.21,727.927C369.417,728.003 368.817,727.48 368.803,726.693C368.783,725.58 369.433,724.73 370.523,724.643Z" style="fill:rgb(156,175,183);"/>
                </g>
                <g transform="matrix(2.46614,0,0,2.46614,9.13571,-743.374)">
                    <path d="M475.453,724.253C476.163,724.283 476.747,724.953 476.713,725.687C476.67,726.667 475.983,727.43 475.153,727.42C474.413,727.407 473.87,726.797 473.9,726.007C473.94,725.05 474.68,724.213 475.453,724.253Z" style="fill:rgb(156,175,183);"/>
                </g>
                <g transform="matrix(2.46614,0,0,2.46614,9.13571,-743.374)">
                    <path d="M100.847,727.96C99.767,727.733 99.217,727.337 99.157,726.507C99.107,725.853 99.627,725.173 100.333,724.9C100.807,724.713 101.263,724.77 101.663,725.093C102.103,725.447 102.113,725.937 101.89,726.37C101.61,726.917 101.22,727.4 100.847,727.96Z" style="fill:rgb(156,175,183);"/>
                </g>
                <g transform="matrix(2.46614,0,0,2.46614,-108.864,-743.374)">
                    <path d="M100.847,727.96C99.767,727.733 99.217,727.337 99.157,726.507C99.107,725.853 99.627,725.173 100.333,724.9C100.807,724.713 101.263,724.77 101.663,725.093C102.103,725.447 102.113,725.937 101.89,726.37C101.61,726.917 101.22,727.4 100.847,727.96Z" style="fill:rgb(156,175,183);"/>
                </g>
                <g transform="matrix(2.46614,0,0,2.46614,9.13571,-743.374)">
                    <path d="M289.773,727.06C289.91,726.473 289.957,725.997 290.127,725.573C290.387,724.93 291.35,724.647 291.917,725.08C292.18,725.28 292.47,725.767 292.397,726.03C292.24,726.603 291.927,727.173 291.543,727.643C291.337,727.897 290.767,728.14 290.533,728.03C290.19,727.857 290,727.37 289.773,727.06Z" style="fill:rgb(156,175,183);"/>
                </g>
                <g transform="matrix(2.46614,0,0,2.46614,9.13571,-743.374)">
                    <path d="M78.277,726.623C78.137,726.887 77.91,727.487 77.517,727.937C77.317,728.17 76.767,728.283 76.463,728.183C76.153,728.08 75.8,727.687 75.727,727.36C75.493,726.327 76.14,725.487 77.19,725.303C77.74,725.207 78.293,725.7 78.277,726.623Z" style="fill:rgb(156,175,183);"/>
                </g>
            </g>
        </g>
    </g>
</svg>
